<svg width="36" height="37" viewBox="0 0 36 37" fill="none" xmlns="http://www.w3.org/2000/svg">
<path d="M5.565 8.1835H28.386C30.453 8.1835 31.9455 10.0885 31.3785 12.0055L28.8975 20.4055C28.515 21.6955 27.294 22.5835 25.905 22.5835H12.168C10.7775 22.5835 9.555 21.694 9.174 20.4055L5.565 8.1835ZM5.565 8.1835L4.5 4.5835M24.75 31.5835C25.3467 31.5835 25.919 31.3464 26.341 30.9245C26.7629 30.5025 27 29.9302 27 29.3335C27 28.7368 26.7629 28.1645 26.341 27.7425C25.919 27.3206 25.3467 27.0835 24.75 27.0835C24.1533 27.0835 23.581 27.3206 23.159 27.7425C22.7371 28.1645 22.5 28.7368 22.5 29.3335C22.5 29.9302 22.7371 30.5025 23.159 30.9245C23.581 31.3464 24.1533 31.5835 24.75 31.5835ZM12.75 31.5835C13.3467 31.5835 13.919 31.3464 14.341 30.9245C14.7629 30.5025 15 29.9302 15 29.3335C15 28.7368 14.7629 28.1645 14.341 27.7425C13.919 27.3206 13.3467 27.0835 12.75 27.0835C12.1533 27.0835 11.581 27.3206 11.159 27.7425C10.7371 28.1645 10.5 28.7368 10.5 29.3335C10.5 29.9302 10.7371 30.5025 11.159 30.9245C11.581 31.3464 12.1533 31.5835 12.75 31.5835Z" stroke="#2A2A2A" stroke-width="1.5" stroke-linecap="round" stroke-linejoin="round"/>
</svg>
