<svg width="310" height="72" viewBox="0 0 310 72" fill="none" xmlns="http://www.w3.org/2000/svg">
<path d="M114.933 46.0386H105.98C94.7538 46.0386 90.3944 37.7183 90.3944 30.4526C90.3944 22.8589 95.0585 14.3979 104.387 14.3979C114.348 14.3979 111.207 20.6089 114.301 23.4917L113.457 23.5386C111.16 23.5386 105.324 22.9292 104.738 16.2261C100.449 16.5776 98.3397 24.1479 98.3397 30.312C98.3397 33.9683 99.0428 42.8276 106.332 43.1792L107.152 43.1089V35.6089C107.152 34.6245 107.012 31.2261 105.558 29.0464C109.027 29.9136 112.473 30.1714 114.816 30.1714C115.566 30.1714 115.871 30.687 115.871 31.2261C115.871 31.6714 115.637 32.1401 115.168 32.6323C115.004 32.7964 114.933 32.9604 114.933 33.4995V46.0386ZM135.91 36.8042C139.402 36.8042 140.832 32.937 140.832 29.8901C140.832 27.9683 140.316 25.9526 138.723 25.3198C136.613 26.6323 135.863 28.7417 135.863 30.7808V36.8042H135.91ZM124.027 46.0151H118.098C117.348 46.0151 117.043 45.4995 117.043 44.9604C117.043 44.4917 117.277 44.0229 117.746 43.5542C117.933 43.3901 117.98 43.2026 117.98 42.6167V33.5933C121.824 32.9839 124.074 31.0386 125.012 27.6167C123.793 29.7729 120.652 31.8589 117.301 31.8589L116.223 31.7651C117.394 30.687 117.394 29.2104 118.379 26.4917C119.129 24.4058 120.957 22.6948 125.785 22.6948C125.808 23.2573 125.832 23.7964 125.832 24.3354C129.09 22.9761 130.543 20.6558 134.973 17.4917C136.238 16.6245 137.621 16.1558 139.144 16.0386C141.723 16.0386 146.058 17.6558 146.058 22.0854C146.058 22.5776 145.988 23.1167 145.871 23.6792C143.668 22.2261 141.371 21.5933 139.191 21.5933C135.769 21.5933 132.465 22.9526 130.824 24.1479C126.652 27.1245 125.785 32.187 125.785 39.4526V44.2573C125.785 45.3354 124.941 46.0151 124.027 46.0151ZM138.441 46.0151C131.082 46.0151 128.082 39.687 128.082 34.6245C128.082 29.3042 131.105 23.6323 138.09 23.6323C142.004 23.6323 147.418 26.187 147.418 31.6948C147.418 33.4292 146.949 35.0698 145.66 36.1011C143.012 38.0933 139.777 37.4604 135.863 38.562L136.215 42.1479C136.402 43.0854 136.918 43.7651 137.785 44.2104C138.629 44.6558 139.308 44.9136 139.848 44.9604C139.848 42.1948 140.715 40.1558 142.473 38.8667C144.769 37.2261 147.277 36.8745 148.637 36.8745L149.457 36.9214C147.629 38.6323 148.191 40.3198 146.832 43.2026C145.941 45.0542 143.246 46.0151 138.441 46.0151ZM157.613 35.8901C161.34 35.8901 162.582 31.6011 162.582 28.9058C162.582 27.0308 162.043 24.9917 160.496 24.4058C158.316 25.7183 157.566 27.8042 157.566 29.8433V35.8901H157.613ZM159.84 46.0151C152.551 46.0151 149.644 39.5933 149.644 34.4136C149.644 28.9761 152.621 22.6948 159.84 22.6948C164.433 22.6948 169.191 25.6011 169.191 30.7573C169.191 37.4839 162.465 36.3354 157.566 37.6479V42.1011C157.566 44.0933 160.402 44.8901 161.246 44.9604C161.246 37.9995 167.48 36.8511 170.129 36.8511L170.855 36.8745C168.066 39.5698 170.41 43.1558 165.746 45.2183C164.504 45.7573 162.535 46.0151 159.84 46.0151ZM192.418 46.0151H186.441C185.387 46.0151 184.801 45.1948 184.683 44.3745V31.6011C184.683 29.9839 184.402 27.7339 182.808 27.7339C180.746 27.9683 179.996 29.8433 179.808 32.2573C179.691 33.4995 179.644 34.7651 179.644 36.0073V44.2573C179.644 45.1948 178.824 46.0151 177.887 46.0151H171.91C171.16 46.0151 170.879 45.4761 170.879 44.937C170.879 44.4917 171.113 44.0229 171.558 43.5542C171.769 43.4604 171.793 43.2964 171.793 42.6167V33.5933C175.543 33.0542 177.887 31.062 178.824 27.6167C177.605 29.7495 174.535 31.8823 171.16 31.8823L170.082 31.7886C171.676 30.312 171.207 28.2964 172.707 25.5542C173.621 23.8667 175.73 22.6948 179.644 22.6948V26.9839C181.004 25.7651 182.152 24.3823 184.262 23.3276C185.246 22.8823 186.183 22.6479 187.074 22.6479C190.168 22.8354 191.621 24.7339 192.137 27.2417C192.394 28.5308 192.535 29.7729 192.535 30.9683V42.9214C192.535 43.3198 192.605 43.5308 192.769 43.5542C193.215 44.0229 193.426 44.4917 193.426 44.937C193.426 45.4761 193.144 46.0151 192.418 46.0151ZM220.004 43.2729C221.527 43.2729 225.723 42.1714 225.723 35.2808C225.723 32.1167 224.738 27.8745 220.332 26.4683C223.004 24.8042 224.105 22.9761 224.105 21.3823C224.105 18.7808 221.598 16.8589 219.137 16.8589C218.199 16.8589 217.168 17.187 216.23 17.9839V39.312C216.23 42.0776 218.199 43.2729 220.004 43.2729ZM223.66 46.0386H208.543C207.793 46.0386 207.488 45.5229 207.488 44.9839C207.488 44.5386 207.723 44.0698 208.191 43.5776C208.379 43.4839 208.426 43.2964 208.426 42.7104V25.6011C210.137 25.2495 211.402 24.5464 212.269 23.4683C213.113 22.3901 213.676 21.2651 213.933 20.0933C212.527 22.5542 210.324 23.6323 208.332 24.0073C207.324 24.2183 206.504 24.312 205.918 24.312L205.144 24.2417C208.566 21.1011 205.707 14.3979 216.23 14.3979H220.965C227.996 14.3979 230.762 17.7261 230.762 20.937C230.762 22.6011 230.012 24.5698 228.113 25.9995C231.793 27.9917 233.223 31.8823 233.223 35.3979C233.223 38.7964 231.769 45.687 223.66 46.0386ZM244.051 44.2808C246.137 42.9683 246.91 40.9292 246.91 38.8198V28.5073C246.183 27.4995 245.762 26.187 245.644 24.5464L245.316 24.4292C243.183 25.7183 242.433 27.7808 242.433 29.8667V42.1245C242.433 43.1323 242.973 43.8589 244.051 44.2808ZM244.683 46.0151C237.394 46.0151 234.488 39.5933 234.488 34.4136C234.488 28.9761 237.465 22.6948 244.683 22.6948C247.988 22.6948 250.965 22.9995 252.488 25.4604C253.543 27.5933 253.098 27.5933 254.058 30.1714C254.316 30.8042 254.691 31.3433 255.23 31.8354L254.433 31.9058C252.933 31.9058 250.144 31.6011 247.801 29.4917C249.23 32.1167 251.527 33.4292 254.762 33.5464L254.785 34.4136C254.785 40.3433 251.387 46.0151 244.683 46.0151ZM277.543 46.0151H271.566C270.512 46.0151 269.926 45.1948 269.808 44.3745V31.6011C269.808 29.9839 269.527 27.7339 267.933 27.7339C265.871 27.9683 265.121 29.8433 264.933 32.2573C264.816 33.4995 264.769 34.7651 264.769 36.0073V44.2573C264.769 45.1948 263.949 46.0151 263.012 46.0151H257.035C256.285 46.0151 256.004 45.4761 256.004 44.937C256.004 44.4917 256.238 44.0229 256.683 43.5542C256.894 43.4604 256.918 43.2964 256.918 42.6167V33.5933C260.668 33.0542 263.012 31.062 263.949 27.6167C262.73 29.7495 259.66 31.8823 256.285 31.8823L255.207 31.7886C256.801 30.312 256.332 28.2964 257.832 25.5542C258.746 23.8667 260.855 22.6948 264.769 22.6948V26.9839C266.129 25.7651 267.277 24.3823 269.387 23.3276C270.371 22.8823 271.308 22.6479 272.199 22.6479C275.293 22.8354 276.746 24.7339 277.262 27.2417C277.519 28.5308 277.66 29.7729 277.66 30.9683V42.9214C277.66 43.3198 277.73 43.5308 277.894 43.5542C278.34 44.0229 278.551 44.4917 278.551 44.937C278.551 45.4761 278.269 46.0151 277.543 46.0151ZM290.738 43.2261C291.394 43.2261 292.027 42.8979 292.637 42.2651V34.0151C292.637 31.9995 291.324 27.7104 289.683 27.7104C288.137 28.1089 287.551 31.6479 287.551 35.2573C287.551 38.3042 288.043 42.8745 290.738 43.2261ZM300.301 46.0151H294.324C293.387 46.0151 292.637 45.2651 292.637 44.2573C291.16 45.4292 289.379 46.0151 287.316 46.0151C284.433 46.0151 282.16 45.0542 280.777 41.3745C280.004 39.2886 279.629 36.9917 279.629 34.5073C279.629 29.1167 281.433 22.6479 285.699 22.6479C287.269 22.6479 289.027 23.5854 290.996 25.5073C292.238 26.7026 292.449 26.7964 292.637 26.9839V15.312C297.183 15.5464 299.785 16.8354 300.887 18.9448C302.668 22.5542 302.199 23.7729 303.699 25.1558L302.926 25.2261C300.957 25.2261 297.043 24.8042 294.91 21.0073C295.191 22.1792 295.754 23.3042 296.598 24.3823C297.441 25.4604 298.707 26.1636 300.418 26.5151V42.6167C300.418 43.2964 300.512 43.4604 300.652 43.5542C301.121 44.0464 301.355 44.5151 301.355 44.9604C301.355 45.4995 301.051 46.0151 300.301 46.0151Z" fill="#5E4931"/>
<path d="M10.0684 37.7841C10.0684 37.7841 12.3919 35.7339 14.8976 37.1007C17.4033 38.4674 24.6016 44.2989 24.6016 44.2989C24.6016 44.2989 14.2598 41.0187 10.0684 37.7841Z" fill="#5E4931"/>
<path d="M20.8203 40.1983L27.3807 45.2098C27.3807 45.2098 31.6632 45.6653 32.0732 45.7109C32.4832 45.7565 25.6039 39.8794 24.2827 39.6516C22.9615 39.4238 22.0959 39.3327 20.8203 40.1983Z" fill="#5E4931"/>
<path d="M34.1688 46.2123L30.6608 43.3877C30.6608 43.3877 32.5287 41.702 35.3534 43.661C38.178 45.6201 38.1324 46.2123 38.1324 46.2123H34.1688Z" fill="#5E4931"/>
<mask id="mask0_546_338" style="mask-type:alpha" maskUnits="userSpaceOnUse" x="13" y="0" width="47" height="48">
<path d="M14.6652 15.5977C14.6652 15.5977 7.76307 31.8621 22.1823 42.9328C22.7518 43.2972 24.8475 44.6184 24.8475 44.6184C24.8475 44.6184 31.0435 37.1468 32.3647 36.8279C31.4991 36.1901 16.0547 31.5431 14.9613 20.7002C14.9613 20.7002 16.1481 26.6363 23.8452 31.5432C27.0343 33.2516 28.5378 33.5705 29.3806 33.9805C30.2234 34.3905 33.5492 35.8484 33.5492 35.8484L35.0071 34.755C35.0071 34.755 30.4968 31.9987 28.3783 31.0648C26.4228 30.2027 21.2453 26.4486 18.9016 23.2066C18.604 22.795 18.311 22.3812 17.9988 21.9806C17.4479 21.2737 16.3096 19.5285 14.6652 15.5977Z" fill="#008917"/>
<path d="M27.3759 45.7346C27.3759 45.7346 32.7799 48.7068 40.7013 47.2391C46.3411 46.1922 51.4124 43.142 54.9806 38.6508C55.9193 37.4777 56.7335 36.2102 57.4104 34.8689C57.5846 34.5204 57.7512 34.1573 57.9085 33.7918C59.1301 30.9333 59.81 27.8728 59.9135 24.766C60.0142 21.9403 59.7704 18.3869 58.3671 15.5977C58.3671 15.5977 57.2119 19.2978 53.6122 23.5689C51.3271 26.251 48.5986 28.5209 45.5453 30.2796C41.0867 32.8788 34.7865 36.7096 31.5787 39.6526C31.5787 39.6526 29.9386 41.1218 29.7677 41.3952C29.7677 41.3952 35.212 37.6936 38.1277 36.5546C40.1918 35.7483 42.8266 34.5882 44.1897 33.9792C44.6905 33.7555 45.1968 33.5495 45.709 33.3534C48.6042 32.2105 51.2568 30.5296 53.5265 28.3996C57.5812 24.5727 57.9229 20.723 57.9229 20.723C57.9229 20.723 57.9001 25.1877 53.5493 29.2652C49.9754 32.6146 47.9846 33.5739 47.3876 33.8097C47.1677 33.8965 46.9496 33.9834 46.7333 34.0787C44.224 35.184 32.141 40.6641 27.3759 45.7346Z" fill="#008917"/>
<path d="M45.5538 28.4448C45.5538 28.4448 52.137 18.6041 51.4081 10.358C50.907 5.34661 51.0892 5.75664 51.0892 5.75664C51.0892 5.75664 55.2806 9.35577 57.3307 13.1827C57.3307 13.1827 55.3261 18.8775 54.2327 19.8798C54.2327 19.8798 54.0961 11.702 52.4104 8.85462C52.4104 8.85462 54.21 17.3513 52.5471 22.34C52.5471 22.34 48.3329 26.9641 45.5538 28.4448Z" fill="#008917"/>
<path d="M15.6901 13.3763C15.6901 13.3763 18.902 7.14135 22.1139 5.74854C22.1139 5.74854 20.4396 15.9731 24.7449 23.5245C27.6834 28.4448 27.5467 28.4448 27.5467 28.4448C27.5467 28.4448 21.9089 24.8229 20.2687 21.7477C19.4395 17.6163 19.5407 13.3521 20.5649 9.26465C20.5649 9.26465 18.287 15.6428 18.902 19.9253C18.902 19.9253 16.6469 16.6451 15.6901 13.3763Z" fill="#008917"/>
<path d="M24.0106 4.27049C24.0106 4.27049 22.8829 9.07123 23.3442 11.446C23.3442 11.446 27.0003 4.32176 30.2805 3.29669C30.2805 3.29669 24.6999 8.28535 24.0106 13.479C23.8681 14.2991 23.6748 14.8002 24.0106 16.8503C24.3465 18.9005 26.7569 23.8436 26.7569 23.8436C26.7569 23.8436 26.5561 15.29 29.4604 9.13957C32.3648 2.98917 35.2691 0.802361 35.2691 0.802361C35.2691 0.802361 30.11 0.597335 24.0106 4.27049Z" fill="#008917"/>
<path d="M37.7975 0.800293C37.7975 0.800293 44.8705 1.00737 48.9366 4.45843C48.9366 4.45843 50.0983 7.19194 49.6883 11.5314C49.6883 11.5314 46.4764 5.03931 42.6154 3.19419C42.6154 3.19419 47.2603 6.95217 48.8341 12.5223C48.8399 12.553 48.8456 12.5837 48.8512 12.6142C49.2455 14.8127 49.0312 17.0772 48.2314 19.1627C47.6146 20.7868 46.7014 23.0947 46.3739 23.4222C46.3739 23.4222 46.1006 13.1715 42.6495 7.43113C39.1984 1.69075 37.7975 0.800293 37.7975 0.800293Z" fill="#008917"/>
<path d="M36.499 0.973145C36.499 0.973145 25.7586 12.9551 28.8566 27.1237C29.8133 31.2696 35.5537 33.0919 35.5537 33.0919C35.5537 33.0919 34.8931 26.0303 36.499 6.89576C36.499 6.89576 37.6494 25.757 37.376 33.0919C37.376 33.0919 42.4786 31.2696 44.0731 27.5338C44.7209 26.0161 44.7951 23.724 44.6548 21.5371C44.4203 18.0913 43.6732 14.6997 42.4381 11.4743C41.0966 7.93009 38.8968 2.95848 36.499 0.973145Z" fill="#008917"/>
</mask>
<g mask="url(#mask0_546_338)">
<rect x="13.014" y="0.800293" width="46.9196" height="46.8458" fill="url(#paint0_linear_546_338)"/>
</g>
<path d="M-6.10352e-05 37.3285C-6.10352e-05 37.3285 7.03873 42.8638 10.7973 45.2556C14.5559 47.6475 23.4398 52.9095 23.4398 52.9095C23.4398 52.9095 31.2303 57.0781 34.3055 57.8298C37.3807 58.5815 39.0891 58.6499 41.6176 58.7865C44.1461 58.9232 50.7977 58.0576 56.2192 55.643C61.6406 53.2284 69.4311 51.5427 69.4311 51.5427C69.4311 51.5427 72.1191 50.9505 78.315 50.586C78.315 50.586 76.8346 40.4249 68.1486 37.0466C65.7521 36.1429 63.1632 35.8713 60.6312 36.2581C57.9724 36.6373 54.2923 37.3709 51.0255 37.9207C47.9936 38.3666 45.6598 38.7688 31.8532 36.5224C31.4455 36.451 31.0277 36.4609 30.6238 36.5517C30.22 36.6424 29.8381 36.8122 29.5002 37.0513C29.0628 37.3705 28.7322 37.7992 28.884 38.3308C29.7952 39.6064 45.2396 44.7545 45.2396 44.7545L46.538 45.0962C46.538 45.0962 45.0573 46.7819 38.2008 47.1463C31.3442 47.5108 22.1585 44.6919 22.1585 44.6919C22.1585 44.6919 14.8758 41.9196 8.39752 38.1136C6.92864 37.2427 5.32874 36.6147 3.65963 36.254C1.91941 35.8854 0.881007 36.0301 -6.10352e-05 37.3285Z" fill="#5E4931"/>
<defs>
<linearGradient id="paint0_linear_546_338" x1="36.4738" y1="0.800293" x2="36.4738" y2="47.6461" gradientUnits="userSpaceOnUse">
<stop offset="0.524" stop-color="#26462B"/>
<stop offset="1" stop-color="#3F6504"/>
</linearGradient>
</defs>
</svg>
